<?xml version="1.0" encoding="UTF-8"?>
<svg xmlns="http://www.w3.org/2000/svg" xmlns:xlink="http://www.w3.org/1999/xlink" width="1024" height="1024">
  <path d="M429.701 955.038C418.914 955.518 410.11 954.944 401.734 947.279C382.728 929.888 380.265 895.114 347.183 896.584C337.111 897.032 327.013 901.684 318.642 907.036C302.645 917.264 290.636 932.447 276.269 944.648C268.611 951.153 260.329 955.846 250.073 956.21C223.868 957.137 185.049 924.82 166.08 907.764C119.226 865.633 64.7578 787.713 61.3117 722.65C60.108 699.925 65.9056 677.203 81.5143 660.069C96.2574 643.884 111.175 638.548 128.639 627.461C155.977 610.105 169.77 580.588 168.515 548.539C167.611 525.458 157.68 500.796 140.523 485.013C131.351 476.575 119.785 470.069 108.278 465.41C83.1481 455.234 65.737 451.95 54.7203 424.35C49.301 410.773 46.7644 396.279 46.0647 381.72C44.9796 359.144 49.0045 335.418 56.13 314.001C72.9893 263.329 113.228 206.044 149.144 166.571C199.746 110.955 266.253 72.0829 342.549 68.6293C367.431 67.5029 395.494 68.4977 414.893 86.2822C422.998 93.7136 427.312 103.219 427.708 114.177C428.788 144.072 408.13 168.682 435.994 194.647C450.37 208.043 468.382 213.697 487.856 212.804C521.838 211.245 544.813 185.594 568.778 164.772C621.133 119.283 673.435 83.9785 746.258 90.1035C783.571 93.2418 818.012 109.353 845.588 134.403C867.003 153.856 884.482 182.955 885.896 212.313C886.761 230.262 882.959 247.126 874.585 262.996C861.306 288.162 838.887 296.949 844.678 330.152C845.979 337.614 848.798 345.072 854.585 350.217C860.158 355.172 867.621 356.884 874.905 356.294C882.797 355.655 889.948 352.511 897.548 350.652C908.591 347.951 920.468 351.271 929.065 358.573C940.06 367.911 946.401 382.517 947.394 396.744C949.694 429.671 926.252 483.18 911.342 512.509C905.063 524.862 898.779 537.178 892.763 549.663C888.72 558.054 884.617 566.164 881.831 575.104C871.571 608.036 874.445 642.366 901.569 665.99C923.85 685.396 951.947 692.798 967.765 719.906C973.673 730.03 976.77 740.916 977.664 752.575C981.1 797.397 955.005 841.97 926.602 874.756C898.82 906.825 864.376 936.3 820.125 939.589C803.078 940.856 785.962 937.142 770.015 931.286C757.202 926.581 744.839 920.74 732.453 915.033C704.607 902.203 667.85 884.747 643.142 912.959C630.928 926.906 626.239 945.981 607.481 953.148C605.685 953.834 603.472 954.95 601.568 955.167C601.427 955.184 601.283 955.177 601.141 955.182C598.103 954.112 440.765 953.774 429.701 955.038Z" data-index="1" style="opacity: 1;"></path>
  <path fill="#FEFEFE" d="M573.608 788.112C576.14 788.641 578.879 789.078 581.189 790.282C587.495 793.569 591.074 800.454 593.039 807.013C589.852 807.005 586.894 806.731 583.749 806.217L581.529 810.43C578.008 811.598 574.534 812.348 570.887 813.015C567.146 813.723 561.257 815.619 557.641 814.123C554.037 812.632 552.997 808.521 551.768 805.2C560.13 800.044 566.728 795.116 573.608 788.112Z" data-index="2"></path>
  <path fill="#FEFEFE" d="M507.939 515.351C510.902 518.182 512.776 521.13 516.369 523.418C524.509 528.6 533.127 527.926 542.093 526.082C542.863 533.54 542.33 541.061 543.192 548.542C530.485 548.664 518.651 548.137 506.255 544.971C508.108 534.825 508.942 525.661 507.939 515.351Z" data-index="3"></path>
  <path fill="#FEFEFE" d="M448.588 713.32C451.287 715.67 453.615 719.728 455.77 722.64C459.356 727.483 462.991 732.279 466.962 736.816C476.28 747.463 485.761 758.321 495.677 768.406C502.294 775.136 509.41 781.405 516.164 788.007L449.198 787.913C448.579 779.15 448.921 770.113 448.85 761.314Q448.52 737.318 448.588 713.32Z" data-index="4" style="opacity: 1;"></path>
  <path fill="#FEFEFE" d="M68.1493 747.758Q70.4996 747.967 72.8307 748.332Q75.1618 748.697 77.4634 749.218Q79.7649 749.738 82.0266 750.41Q84.2882 751.083 86.5 751.905Q88.7117 752.727 90.8636 753.695Q93.0155 754.663 95.0979 755.773Q97.1804 756.882 99.1842 758.128Q101.188 759.374 103.104 760.751C114.455 769.054 123.496 781.223 125.599 795.388C127.315 806.945 124.117 818.149 117.219 827.461C114.632 830.529 111.943 833.369 109.066 836.166C104.235 829.89 100.245 822.85 96.307 815.993C83.8837 794.358 73.6104 772.207 68.1493 747.758Z" data-index="5"></path>
  <path fill="#80AE7B" d="M545.577 725.738Q601.567 725.383 657.556 725.839C654.131 736.957 655.604 748.163 659.771 758.83L659.829 759.272C657.713 760.617 583.464 760.049 573.71 760.06C563.983 748.938 555.2 736.972 545.577 725.738Z" data-index="6"></path>
  <path fill="#FAD76C" d="M643.539 762.75C657.036 762.703 670.632 762.359 684.114 762.986C681.062 768.456 678.211 773.93 677.491 780.246C676.65 787.632 678.832 793.176 683.292 798.875L613.242 798.94L592.102 798.899C587.954 791.645 584.785 788.137 576.652 785.568C580.633 781.219 584.265 776.572 587.953 771.976C582.555 769.885 579.346 767.727 576.008 762.943L643.539 762.75Z" data-index="7"></path>
  <path fill="#FEFEFE" d="M537.567 437.319C544.012 443.717 546.035 453.556 549.152 461.743C551.876 468.895 555.997 471.161 562.624 474.156C560.82 475.547 559.193 477.057 557.549 478.628C558.099 484.199 559.805 489.666 560.486 495.248C561.278 501.748 561.192 508.933 556.833 514.238C551.907 520.234 542.964 523.618 535.415 524.409C527.678 525.22 521.181 523.7 515.072 518.823C512.236 516.05 509.762 512.77 507.749 509.358C501.176 498.216 500.789 488.882 503.89 476.575C502.761 476.233 501.618 475.89 500.543 475.4C497.897 474.193 496.44 472.466 495.47 469.743C494.587 467.262 493.865 463.29 495.36 460.878C496.057 459.754 496.975 458.966 498.317 458.744C499.982 458.468 501.801 459.122 503.143 460.08C505.257 461.589 506.293 463.713 506.678 466.217C506.704 466.384 506.859 467.512 506.913 467.707C507.291 469.072 507.447 469.19 508.601 469.825C509.212 469.769 509.751 469.719 510.33 469.505C518.361 466.546 533.636 445.215 537.567 437.319Z" data-index="8"></path>
  <path fill="#FEFEFE" d="M505.548 547.501C518.393 550.966 531.355 551.394 544.576 551.291C551.883 561.481 559.125 566.761 567.225 575.429C574.317 583.019 580.368 593.358 585.026 602.615Q569.314 602.821 553.601 602.852C546.771 602.811 539.367 602.154 532.604 602.929C530.323 603.19 528.388 603.489 526.596 605.01C523.315 607.797 521.987 611.501 521.694 615.723C521.154 623.517 520.313 634.49 526.037 640.562C528.5 643.174 531.882 644.145 535.374 644.16C541.807 643.879 548.258 643.942 554.696 643.916C557.627 656.793 556.568 669.212 554.615 682.12Q533.004 681.993 511.393 682.175C512.957 667.115 513.511 651.864 514.492 636.751C515.732 617.645 517.308 598.378 517.572 579.231C517.767 565.083 515.569 557.82 505.548 547.501Z" data-index="9"></path>
  <path fill="#F7CEF0" d="M655.633 643.754C666.225 643.537 676.874 643.669 687.466 643.856C684.625 647.879 682.629 652.188 681.776 657.059C680.192 666.104 681.819 674.162 687.09 681.689C675.811 682.286 664.376 681.978 653.077 682.01L591.577 682.105L556.804 682.101C558.466 668.932 558.972 657.09 556.956 643.923L655.633 643.754Z" data-index="10"></path>
  <path fill="#FEB101" d="M532.802 605.186C551.627 604.489 570.706 605.15 589.565 605.15C612.543 605.15 635.673 604.598 658.627 605.442C661.772 610.092 663.23 615.745 663.651 621.305C664.08 626.96 663.42 635.491 659.365 639.776C658.1 641.113 657.351 640.965 655.625 641.067C644.06 641.082 534.545 642.365 530.46 640.56C527.831 639.399 525.933 636.571 525.048 633.933C523.386 628.976 523.5 614.687 525.948 610.203C527.421 607.504 529.9 605.97 532.802 605.186Z" data-index="11"></path>
  <path fill="#BFE8FB" d="M512.59 684.661L669.877 684.639C666.697 688.167 663.379 691.359 661.545 695.849C658.721 702.761 660.002 710.182 662.871 716.792C664.077 718.938 665.623 720.769 667.175 722.666C653.381 723.828 638.786 722.935 624.908 722.935L543.385 722.999C532.219 710.996 523.386 697.006 512.59 684.661Z" data-index="12"></path>
  <path fill="#FEFEFE" d="M481.288 546.602C484.88 546.391 488.495 546.13 492.092 546.365C498.49 546.784 503.428 548.439 507.686 553.434C511.115 557.457 513.341 562.058 514.198 567.29C516.225 579.661 514.422 593.469 513.774 605.953Q511.491 644.924 508.552 683.851C512.372 690.962 518.774 697.365 523.913 703.613L548.943 734.183C558.056 745.251 566.554 757.429 576.362 767.835C578.781 770.402 581.009 772.041 584.16 773.578C571.361 786.44 565.039 794.225 548.866 803.358C545.697 805.041 542.479 806.474 539.172 807.864C526.074 792.63 510.643 779.643 496.527 765.433C484.578 753.404 447.356 713.772 444.225 697.909C442.652 689.939 444.214 681.008 444.885 673.003C446.958 648.274 450.612 623.733 454.079 599.173C455.322 590.368 455.77 581.261 457.843 572.618C459.152 567.158 461.265 561.519 464.412 556.84C468.644 550.55 474.082 547.984 481.288 546.602Z" data-index="13"></path>
  <path fill="#D75203" d="M448.524 790.765C471.725 790.696 495.063 791.172 518.242 790.465C524.82 797.457 531.404 805.402 539.117 811.116C542.481 809.661 545.834 808.215 549.108 806.565C550.965 810.679 552.638 815.17 557.172 816.997C563.092 819.383 576.942 815.331 582.833 812.948L585.204 809.752L592.961 810.053C594.52 825.685 594.845 841.681 595.646 857.378L599.569 928.017C599.865 933.426 599.503 951.437 601.141 955.182C598.103 954.112 440.765 953.774 429.701 955.038C432.41 925.273 436.599 895.605 439.986 865.908L446.403 809.928C447.162 803.565 447.567 797.088 448.524 790.765Z" data-index="14" style="opacity: 1;"></path>
  <path fill="#FEFEFE" d="M124.191 200.776C146.869 168.756 188.611 129.532 222.18 108.99C232.664 102.574 243.928 96.5149 255.26 91.7535C292.185 76.2394 345.858 64.5641 385.544 74.2553C395.848 76.7714 406.026 81.3287 413.748 88.7566C442.921 116.822 404.511 151.603 425.37 185.617C434.12 199.887 450.047 209.934 466.144 213.728C473.765 215.524 481.55 215.891 489.35 215.379C524.506 213.071 546.958 187.093 571.975 165.736C590.673 149.773 608.001 135.58 629.01 122.634C629.698 122.009 630.493 121.588 631.288 121.113C663.611 101.123 695.902 92.5515 733.765 92.3693L736.025 92.4145C777.483 92.7673 819.176 111.272 848.229 140.684C867.926 160.624 883.895 188.41 883.501 217.143C883.283 233.003 879.56 248.308 871.981 262.278C858.287 287.519 837.051 295.776 841.906 329.083C843.077 337.118 845.971 345.139 851.725 351.042C857.099 356.557 864.412 359.141 872.012 359.099C880.304 359.054 888.111 355.701 896.034 353.679C908.144 350.588 920.253 353.735 929.261 362.461C940.148 373.009 944.7 386.808 944.78 401.719C944.899 423.692 936.436 445.559 929.001 465.926L927.96 468.489C918.969 492.567 906.662 515.039 895.298 538.018C890.675 547.364 884.657 557.202 881.756 567.209L880.931 569.464C872.913 592.639 869.964 621.035 881.014 643.77C903.283 689.588 958.863 684.895 973.247 740.956L973.18 742.013C980.533 767.707 969.214 803.886 956.435 826.875L951.025 836.435L949.922 838.412C934.008 863.8 900.921 903.776 874.491 917.885C869.849 907.03 867.536 894.979 863.641 883.802C861.478 875.339 858.345 867.035 855.461 858.791L845.505 829.871Q820.284 758.903 792.675 688.829C790.491 683.403 785.144 667.249 782.557 663.393C781.952 662.491 781.945 662.558 780.818 662.397L780.382 662.843C780.667 671.092 795.92 704.971 799.629 714.722L835.011 809.323C844.006 833.81 852.384 858.707 860.361 883.546C864.255 895.603 867.765 907.84 871.942 919.797C840.27 936.822 814.257 942.184 779.258 931.676C773.361 929.905 767.78 927.09 761.916 925.345L759.421 924.21C742.394 917.581 726.398 908.434 709.254 902.035C690.726 895.12 672.614 891.911 654.109 900.38C653.273 900.885 652.433 901.464 651.56 901.896C646.773 905.578 642.57 909.287 638.852 914.071C627.226 929.027 623.294 944.94 603.664 951.711L600.482 893.794Q599.096 864.117 597.246 834.466C596.692 825.619 597.257 809.587 594.005 801.638Q624.249 801.398 654.493 801.48C662.11 801.493 680.92 802.6 686.788 800.843C686.346 798.996 684.51 798.068 683.214 796.754C676.381 789.82 677.702 776.954 681.86 768.901C683.089 766.52 688.23 762.765 688.167 760.424C680.501 759.068 671.705 760.092 663.838 759.637C663.065 758.438 662.342 757.224 661.772 755.914C657.809 746.8 656.918 735.369 660.649 726.073C663.61 725.924 666.801 726.034 669.633 725.105L669.91 724.274C669.085 722.144 667.917 721.135 666.31 719.572C662.586 715.951 661.081 709.408 661.145 704.339C661.259 695.433 666.314 690.307 672.275 684.552C677.578 684.558 685.809 685.577 690.693 683.71C690.34 682.145 689.289 681.288 688.281 680.104C686.88 678.457 685.062 676.483 684.258 674.482C681.631 667.94 681.634 656.03 685.178 649.804C686.512 647.461 690.49 644.173 690.694 641.668C681.352 640.63 671.431 641.396 661.982 641.14C665.834 632.406 667.907 623.154 664.943 613.776C664.212 611.464 662.638 608.718 662.9 606.284C664 605.054 664.585 605.141 666.164 604.8L666.196 604.017L665.552 603.364C660.475 601.997 647.089 602.898 641.219 602.895L588.122 602.814C582.955 593.186 577.218 582.568 569.897 574.428C560.359 563.823 554.102 561.282 545.6 547.88Q545.104 536.448 544.919 525.007C551.093 522.603 557.153 519.066 560.704 513.276C566.634 503.606 562.577 489.611 560.266 479.341C562.159 477.841 564.324 476.678 565.424 474.455C565.397 473.677 565.57 473.242 564.997 472.633C562.585 470.074 558.15 469.248 555.43 466.664C550.059 461.558 548.032 449.662 544.438 442.804C540 434.333 533.623 429.049 524.437 426.287C509.003 421.647 490.994 424.69 477.025 432.359C455.987 443.909 451.721 464.605 452.027 486.837C452.125 493.997 452.978 502.002 450.83 508.932C446.916 521.561 431.931 525.61 421.345 530.97C408.577 537.434 400.659 545.554 396.241 559.324Q395.829 560.613 395.48 561.92Q395.132 563.228 394.849 564.551Q394.566 565.874 394.349 567.209Q394.131 568.545 393.98 569.889Q393.829 571.234 393.745 572.584Q393.661 573.934 393.643 575.287Q393.626 576.64 393.675 577.992Q393.724 579.344 393.841 580.692Q393.957 582.04 394.139 583.381Q394.322 584.722 394.571 586.052Q394.82 587.382 395.134 588.698Q395.448 590.014 395.827 591.312Q396.206 592.611 396.648 593.89Q397.091 595.169 397.596 596.424Q398.102 597.679 398.668 598.907Q399.235 600.136 399.862 601.335C404.061 609.257 411.661 615.116 420.287 617.574C430.749 620.555 440.781 616.443 449.77 611.367C446.216 628.995 444.427 647.537 442.789 665.436C441.903 675.11 440.647 685.238 441.045 694.948C441.278 700.604 445.207 705.195 445.673 710.811C446.658 722.698 445.913 735.196 445.915 747.157C445.916 760.114 446.549 773.235 445.965 786.16C445.296 800.961 442.61 816.059 440.92 830.8L432.498 902.878C430.526 919.375 428.331 935.896 426.846 952.443C424.789 952.517 422.713 952.616 420.655 952.558C396.487 951.876 390.374 920.161 376.371 905.725Q375.274 904.589 374.088 903.545Q372.903 902.501 371.637 901.556Q370.371 900.611 369.032 899.771Q367.694 898.932 366.293 898.203Q364.891 897.474 363.435 896.861Q361.98 896.248 360.479 895.755Q358.978 895.261 357.443 894.89Q355.907 894.52 354.347 894.274C327.128 889.818 303.345 915.069 285.509 932.056C279.77 937.523 274.091 943.394 267.394 947.694C261.553 951.445 254.979 953.702 247.984 953.492C221.965 952.708 177.835 916.518 159.967 898.147C165.791 885.318 172.266 872.736 178.274 859.982C187.369 840.223 197.348 820.864 206.376 801.054Q248.114 709.406 285.235 615.793C286.131 613.547 288.403 609.036 287.383 606.676L286.381 606.499C283.687 608.427 265.012 656.952 262.208 663.869Q222.228 762.344 175.925 858.009C169.752 870.518 163.133 882.985 157.595 895.782C139.989 877.735 123.028 859.025 109.857 837.408C118.473 829.445 124.951 820.658 126.994 808.861C129.191 796.174 125.375 783.419 117.899 773.095C105.736 756.296 87.0785 749.068 67.3535 745.803Q66.7788 743.06 66.262 740.306C58.6938 699.66 69.0592 666.949 104.897 644.346C125.504 631.35 141.261 626.309 155.891 604.792C169.983 584.067 174.21 558.536 169.54 534.065C164.752 508.976 151.801 488.231 130.639 473.895L128.096 472.231C121.405 468.561 114.595 464.964 107.534 462.055C97.1652 457.785 85.6715 454.429 76.2395 448.245C59.7018 437.402 54.4907 418.101 50.6595 399.86L50.3416 397.258C43.6373 358.815 55.2411 317.94 72.094 283.706L73.3408 281.214C78.0849 269.983 84.8214 259.121 91.2501 248.777C101.099 232.929 111.341 217.659 122.64 202.807L124.191 200.776Z" data-index="15" style="opacity: 1;"></path>
  <path fill="#80AE7B" d="M408.556 314.363C408.396 315.628 407.772 317.332 408.7 318.349C408.875 318.54 409.125 318.645 409.338 318.793C407.945 327.89 408.691 335.916 414.358 343.553C416.027 345.802 417.883 347.599 419.999 349.42L420.671 350.005L418.572 351.219C414.493 348.357 411.22 344.267 409.123 339.76C405.317 331.581 405.483 322.71 408.556 314.363Z" data-index="16"></path>
  <path fill="#4D8D57" d="M408.556 314.363C411.591 307.751 416.14 302.363 422.544 298.785C430.831 294.157 440.14 293.97 449.065 296.583L446.591 297.291C447.12 297.418 447.642 297.53 448.156 297.711L447.176 298.26C438.24 296.339 429.914 296.952 422.113 302.044C415.905 306.095 411.788 311.855 409.338 318.793C409.125 318.645 408.875 318.54 408.7 318.349C407.772 317.332 408.396 315.628 408.556 314.363Z" data-index="17"></path>
  <path fill="#80AE7B" d="M449.065 296.583C451.841 297.824 454.726 299.06 456.987 301.151C463.912 306.582 468.277 313.793 469.323 322.588C470.052 328.715 468.895 335.767 465.748 341.111C465.83 339.988 466.163 338.955 466.257 337.822L464.592 338.468C466.145 334.512 467.209 330.533 467.259 326.261C467.365 317.047 463.053 310.285 456.841 304.037C453.783 301.713 450.615 299.949 447.176 298.26L448.156 297.711C447.642 297.53 447.12 297.418 446.591 297.291L449.065 296.583Z" data-index="18"></path>
  <path fill="#4D8D57" d="M464.592 338.468L466.257 337.822C466.163 338.955 465.83 339.988 465.748 341.111C462.959 347.864 457.196 352.779 450.525 355.489C442.792 358.631 433.887 359.068 426.109 355.856Q424.052 355.004 422.156 353.837Q420.26 352.67 418.572 351.219L420.671 350.005Q422.062 351.036 423.569 351.889C430.727 355.934 439.021 356.343 446.803 354.032C455.254 351.522 460.527 346.012 464.592 338.468Z" data-index="19"></path>
  <path fill="#FAD76C" d="M949.922 838.412C938.181 833.04 929.666 827.605 922.419 816.616C915.048 805.438 912.539 792.469 915.309 779.394C918.24 765.561 924.482 755.21 936.492 747.495Q937.5 746.848 938.539 746.252Q939.577 745.655 940.644 745.111Q941.711 744.566 942.803 744.075Q943.895 743.584 945.011 743.147Q946.126 742.71 947.261 742.329Q948.397 741.948 949.549 741.623Q950.702 741.298 951.87 741.03Q953.037 740.762 954.216 740.553Q955.395 740.343 956.583 740.191Q957.771 740.04 958.965 739.947Q960.16 739.855 961.357 739.821Q962.554 739.787 963.751 739.813Q964.949 739.838 966.144 739.923Q967.338 740.007 968.527 740.15Q969.717 740.293 970.897 740.495Q972.078 740.696 973.247 740.956L973.18 742.013C957.217 741.209 943.963 741.891 931.516 753.253C921.821 762.103 916.66 774.393 916.099 787.438C915.524 800.797 920.823 813.934 929.951 823.628C935.014 829.005 943.647 835.273 951.025 836.435L949.922 838.412Z" data-index="20"></path>
  <path fill="#FAD76C" d="M50.3416 397.258C68.7251 392.144 86.4471 392.17 103.413 401.704Q104.637 402.407 105.825 403.168Q107.013 403.93 108.162 404.749Q109.311 405.569 110.418 406.443Q111.526 407.318 112.589 408.246Q113.652 409.174 114.668 410.153Q115.685 411.132 116.652 412.159Q117.619 413.187 118.534 414.261Q119.45 415.335 120.311 416.453Q121.173 417.57 121.979 418.729Q122.785 419.887 123.532 421.084Q124.28 422.281 124.969 423.513Q125.657 424.745 126.284 426.009Q126.911 427.273 127.475 428.567Q128.039 429.86 128.539 431.18Q129.039 432.499 129.473 433.842Q129.908 435.185 130.276 436.547C133.573 448.722 132.853 461.594 130.639 473.895L128.096 472.231C128.602 471.375 128.581 471.479 128.97 470.539C130.238 467.471 130.098 463.251 130.11 459.968C130.149 449.169 129.461 439.282 125.003 429.251C118.921 415.565 107.776 405.316 93.826 400.062C83.0497 396.003 73.2806 395.421 61.9574 397.104C58.2114 397.661 54.1327 398.285 50.6595 399.86L50.3416 397.258Z" data-index="21"></path>
  <path fill="#405FD9" d="M733.765 92.3693L736.025 92.4145C739.862 108.721 739.169 124.354 730.043 138.896C727.16 143.49 723.225 148.406 718.729 151.5C709.054 160.057 693.762 164.544 680.987 163.717Q676.375 163.443 671.869 162.423C663.009 160.182 655.99 156.272 648.85 150.629C639.665 142.864 633.205 133.914 629.01 122.634C629.698 122.009 630.493 121.588 631.288 121.113C632.786 132.118 644.051 143.553 652.171 150.333C658.498 154.645 665.227 158.74 672.858 160.21C675.084 160.8 677.327 161.115 679.615 161.338C695.066 162.844 708.171 157.372 719.891 147.646Q722.144 145.476 724.151 143.077Q726.157 140.678 727.894 138.076C737.37 123.637 737.077 108.675 733.765 92.3693Z" data-index="23"></path>
  <path fill="#FAD76C" d="M124.191 200.776C127.824 202.651 133.495 205.006 136.147 208.055C145.549 213.747 153.631 225.58 156.251 236.19Q156.559 237.488 156.804 238.8Q157.049 240.112 157.23 241.434Q157.411 242.756 157.529 244.085Q157.646 245.414 157.699 246.747Q157.753 248.08 157.741 249.415Q157.73 250.749 157.655 252.081Q157.579 253.413 157.44 254.74Q157.3 256.067 157.097 257.386Q156.893 258.705 156.626 260.012Q156.36 261.32 156.03 262.613Q155.701 263.906 155.309 265.181Q154.918 266.457 154.465 267.712Q154.013 268.967 153.5 270.199Q152.988 271.431 152.417 272.637Q151.845 273.843 151.217 275.02Q150.588 276.197 149.903 277.342C143.358 288.136 131.965 296.667 119.641 299.553C107.946 302.292 95.1594 300.699 84.9511 294.251C80.2289 291.269 76.099 287.574 72.094 283.706L73.3408 281.214Q76.0697 284.207 79.1576 286.827C89.2259 295.291 100.427 299.251 113.588 298.028C125.519 296.92 136.541 290.212 144.054 281.024C152.207 271.053 156.252 257.048 154.939 244.244C153.464 229.86 145.549 218.602 134.558 209.703C130.732 208.366 126.109 205.053 122.64 202.807L124.191 200.776Z" data-index="24"></path>
  <path fill="#FAD76C" d="M391.03 447.881C392.337 447.893 392.599 447.789 393.646 448.535C394.058 449.441 394.33 450.237 394.354 451.234C394.552 459.329 390.866 470.294 385.131 476.124C374.574 486.858 358.077 484.609 344.375 484.577C342.852 484.585 342.067 484.523 340.938 483.534L341.101 482.676C346.636 477.935 353.168 473.898 359.123 469.671C369.615 462.223 379.981 454.493 391.03 447.881Z" data-index="26"></path>
  <path fill="#FEFEFE" d="M391.337 450.994C391.831 451.632 391.791 451.813 391.767 452.599C391.532 460.324 387.71 470.008 382.005 475.269C373.196 483.394 360.158 481.969 349.125 481.725L348.168 481.318C349.201 478.689 385.896 453.859 391.337 450.994Z" data-index="27"></path>
  <path fill="#FEFEFE" d="M409.338 318.793C411.788 311.855 415.905 306.095 422.113 302.044C429.914 296.952 438.24 296.339 447.176 298.26C450.615 299.949 453.783 301.713 456.841 304.037C463.053 310.285 467.365 317.047 467.259 326.261C467.209 330.533 466.145 334.512 464.592 338.468C460.527 346.012 455.254 351.522 446.803 354.032C439.021 356.343 430.727 355.934 423.569 351.889Q422.062 351.036 420.671 350.005L419.999 349.42C417.883 347.599 416.027 345.802 414.358 343.553C408.691 335.916 407.945 327.89 409.338 318.793Z" data-index="28"></path>
  <path fill="#FEFEFE" d="M50.6595 399.86C54.1327 398.285 58.2114 397.661 61.9574 397.104C73.2806 395.421 83.0497 396.003 93.826 400.062C107.776 405.316 118.921 415.565 125.003 429.251C129.461 439.282 130.149 449.169 130.11 459.968C130.098 463.251 130.238 467.471 128.97 470.539C128.581 471.479 128.602 471.375 128.096 472.231C121.405 468.561 114.595 464.964 107.534 462.055C97.1652 457.785 85.6715 454.429 76.2395 448.245C59.7018 437.402 54.4907 418.101 50.6595 399.86Z" data-index="29"></path>
  <path fill="#FEFEFE" d="M951.025 836.435C943.647 835.273 935.014 829.005 929.951 823.628C920.823 813.934 915.524 800.797 916.099 787.438C916.66 774.393 921.821 762.103 931.516 753.253C943.963 741.891 957.217 741.209 973.18 742.013C980.533 767.707 969.214 803.886 956.435 826.875L951.025 836.435Z" data-index="30"></path>
  <path fill="#FEFEFE" d="M122.64 202.807C126.109 205.053 130.732 208.366 134.558 209.703C145.549 218.602 153.464 229.86 154.939 244.244C156.252 257.048 152.207 271.053 144.054 281.024C136.541 290.212 125.519 296.92 113.588 298.028C100.427 299.251 89.2259 295.291 79.1576 286.827Q76.0697 284.206 73.3408 281.214C78.0849 269.983 84.8214 259.121 91.2501 248.777C101.099 232.929 111.341 217.659 122.64 202.807Z" data-index="32"></path>
  <path fill="#FEFEFE" d="M631.288 121.113C663.611 101.123 695.902 92.5515 733.765 92.3693C737.077 108.675 737.37 123.637 727.894 138.076Q726.157 140.678 724.151 143.077Q722.144 145.476 719.891 147.646C708.171 157.372 695.066 162.844 679.615 161.338C677.327 161.115 675.084 160.8 672.858 160.21C665.227 158.74 658.498 154.645 652.171 150.333C644.051 143.553 632.786 132.118 631.288 121.113Z" data-index="33"></path>
  <path fill="#BFE8FB" d="M745.938 722.601C742.887 715.635 742.222 706.898 741.141 699.375C737.785 676.017 733.197 643.827 741.793 621.616C745.282 612.598 750.973 604.085 760.165 600.139C768.507 596.559 777.691 597.739 785.833 601.171C813.773 612.949 834.971 643.613 845.872 671.113C851.046 684.163 853.961 699.342 848.226 712.677Q846.384 716.908 843.817 720.743C840.267 726.01 829.326 737.757 831.625 744.438C831.939 745.348 832.323 745.371 833.087 745.851C835.886 745.796 838.138 743.902 840.003 741.983C842.395 739.523 844.677 736.417 846.335 733.423C849.842 727.087 856.977 706.577 863.572 704.249C865.179 704.523 865.983 704.845 866.956 706.203C873.796 715.754 877.79 747.563 879.897 760.057C882.311 774.378 888.202 799.14 885.467 812.851C884.908 815.652 883.792 818.349 882 820.591C879.95 823.156 873.131 826.709 875.969 830.48C877.98 833.153 883.342 833.783 886.456 834.185C886.921 848.46 883.868 865.297 873.708 876.072C870.728 879.233 867.284 881.494 863.641 883.802C861.478 875.339 858.345 867.035 855.461 858.791L845.505 829.871Q820.284 758.903 792.675 688.829C790.491 683.403 785.144 667.249 782.557 663.393C781.952 662.491 781.945 662.558 780.818 662.397L780.382 662.843C780.667 671.092 795.92 704.971 799.629 714.722L835.011 809.323C844.006 833.81 852.384 858.707 860.361 883.546C844.855 885.348 823.491 877.405 811.469 867.757C809.845 866.453 807.552 864.705 807.172 862.541C807.028 861.726 807.472 861.401 807.884 860.749C813.289 857.752 827.842 862.082 830.409 857.012C830.586 855.082 829.692 853.575 828.525 852.101C823.918 846.281 810.901 840.771 804.303 836.252C774.484 815.834 751.932 780.906 748.247 744.705C755.891 748.601 773.126 755.468 781.853 752.877C783.516 752.383 784.965 751.453 785.65 749.776C786.325 748.121 785.996 746.27 785.109 744.773C784.286 743.385 783.102 742.398 781.76 741.532C777.611 738.857 772.748 736.981 768.319 734.801C760.739 731.069 753.139 727.007 745.938 722.601Z" data-index="35" style="opacity: 1;"></path>
  <path fill="#FAD76C" d="M723.921 450.546C729.69 449.502 738.396 448.878 743.022 445.112C744.204 444.15 745.07 442.843 745.032 441.262C744.978 439.008 743.315 436.756 741.667 435.352C734.105 428.91 718.892 432.58 709.708 433.107C706.529 433.289 703.205 433.488 700.057 432.869C679.391 428.807 641.956 406.505 626.466 392.673C622.71 389.32 607.931 376.193 607.67 371.656C612.019 367.184 635.773 365.496 642.248 359.315C643.811 357.823 645.192 355.708 645.043 353.454C644.289 342.017 596.686 355.842 584.461 344.793C579.712 340.501 576.382 334.288 572.977 328.92C560.985 310.014 549.121 289.805 541.296 268.745C539.189 263.075 537.575 257.215 537.188 251.162C536.678 243.177 538.249 234.706 543.823 228.62C552.533 219.111 568.676 213.799 581.265 213.536C610.654 212.92 650.98 233.179 671.712 253.341C700.348 281.189 693.543 301.883 694.043 337.292C699.341 324.871 701.97 298.535 704.855 284.39C705.876 279.386 706.697 274.022 708.858 269.371C715.208 275.565 720.522 283.691 726.001 290.692C734.356 301.367 742.355 312.227 750.495 323.059C756.607 331.193 762.969 339.201 768.53 347.729C771.232 351.872 773.666 356.165 775.54 360.75C779.185 369.669 777.561 377.133 773.991 385.597C777.085 385.819 780.292 385.922 783.353 386.415C786.909 386.988 789.459 388.569 791.464 391.589C797.142 400.142 795.415 420.195 793.708 429.909C792.679 435.762 791.003 441.536 789.687 447.334C796.179 454.249 803.046 460.843 809.899 467.398C813.491 470.834 817.749 474.27 820.82 478.142C821.547 479.059 821.723 479.656 821.732 480.8L821.03 481.38C816.037 479.355 793.199 454.419 787.055 449.165C782.011 450.489 777.599 452.939 772.824 454.936C757.953 461.157 738.113 456.487 723.921 450.546Z" data-index="36"></path>
  <path d="M787.055 449.165C778.696 441.199 770.862 432.627 762.565 424.572Q715.148 377.878 665.159 333.948C657.676 327.436 604.044 283.121 602.299 279.779L602.745 279.302C602.974 279.32 603.203 279.329 603.43 279.355C607.526 279.829 624.178 295.047 628.511 298.695Q690.412 350.349 748.401 406.36C761.437 418.948 778.175 433.812 789.687 447.334C796.179 454.249 803.046 460.843 809.899 467.398C813.491 470.834 817.749 474.27 820.82 478.142C821.547 479.059 821.723 479.656 821.732 480.8L821.03 481.38C816.037 479.355 793.199 454.419 787.055 449.165Z" data-index="37"></path>
  <path fill="#F7CEF0" d="M197.505 648.226C201.792 654.608 217.877 679.203 224.634 681.488C225.813 681.114 225.481 681.459 226.021 680.475C230.582 672.164 214.895 638.839 214.321 627.04C214.125 623.013 215.401 619.242 217.134 615.664C220.775 608.144 226.444 601.304 231.317 594.546C237.286 586.266 243.055 577.733 249.74 570.01C257.866 560.624 267.124 550.862 276.659 542.925C282.663 537.927 290.336 532.951 297.754 530.436C305.353 527.86 313.687 527.398 321.011 531.167C332.694 537.179 338.225 549.97 341.812 561.878C348.501 584.079 348.658 617.538 343.442 640.285C340.87 651.501 336.43 662.935 330.93 673.031C322.832 687.893 310.744 701.296 294.095 706.349C286.788 708.567 267.549 709.585 262.698 713.127L262.3 714.053C262.838 715.16 263.244 715.537 264.442 715.94C273.752 719.072 302.469 710.884 312.383 708.729C318.304 707.441 324.311 706.479 330.263 705.338C325.503 717.33 318.998 728.76 312.825 740.07C298.581 766.167 276.315 807.62 248.251 819.907C243.892 821.815 231.029 824.377 228.405 827.264C228.74 833.336 239.186 832.729 231.904 841.189C222.151 852.519 202.259 859.022 187.741 859.888Q183.01 860.146 178.274 859.982C187.369 840.223 197.348 820.864 206.376 801.054Q248.114 709.406 285.235 615.793C286.131 613.547 288.403 609.036 287.383 606.676L286.381 606.499C283.687 608.427 265.012 656.952 262.208 663.869Q222.228 762.344 175.925 858.009C158.326 834.942 148.992 818.097 152.824 787.965C156.592 792.151 168.202 806.912 173.468 806.877C174.226 806.872 174.899 806.449 175.406 805.894C177.885 803.176 177.419 797.562 176.802 794.267C175.662 788.172 173.477 782.212 171.81 776.244C170.031 769.875 168.776 763.254 167.809 756.711C162.03 717.599 178.498 681.125 197.505 648.226Z" data-index="38"></path>
  <path fill="#BFE8FB" d="M200.635 232.423C207.8 237.096 231.194 259.637 238.709 258.344C239.868 258.144 240.696 257.516 241.117 256.406C243.742 249.481 221.541 224.773 217.784 217.475C213.912 209.954 214.692 200.095 217.244 192.257C220.929 180.938 229.325 170.184 235.897 160.337C248.874 140.892 272.536 103.662 293.289 93.2691C300.265 89.7756 308.774 88.9489 316.193 91.446C326.912 95.054 334.895 104.337 339.785 114.235C351.252 137.447 352.416 171 351.924 196.628C351.788 203.698 352.066 211.429 350.097 218.278C348.7 223.137 346.315 227.734 344.256 232.342C339.366 243.286 333.819 254.215 329.992 265.566C321.351 269.632 311.197 272.594 301.942 274.986C297.727 276.075 279.509 279.505 277.601 281.665C276.696 282.689 276.587 283.259 276.486 284.538C277.203 286.21 278.086 287.005 279.693 287.802C281.685 288.79 284.102 289.44 286.338 289.296C298.952 288.482 331.964 276.86 345.019 272.468C333.017 306.986 323.168 342.811 303.586 374.049C300.21 379.434 296.614 385.112 291.916 389.45C286.137 394.787 277.607 395.516 271.536 400.506C269.271 402.368 267.393 404.945 267.274 407.97C267.11 412.109 269.581 415.014 272.103 417.946Q271.605 418.514 271.084 419.061C260.852 429.949 247.428 439.476 232.39 442.048C228.369 442.735 224.192 442.693 220.123 442.797C217.988 450.31 206.557 490.331 203.727 494.307L202.648 494.548C201.891 493.729 201.881 493.691 201.903 492.616C202.008 487.585 205.27 480.887 206.762 476.028L216.899 442.434C216.294 441.803 216.606 442.024 215.798 441.622C214.375 440.916 213.016 440.215 211.678 439.351C191.917 426.598 186.864 405.787 182.104 384.166C187.448 386.759 194.049 393.853 199.266 395.036C200.512 395.318 201.874 395.132 202.907 394.334C206.529 391.536 207.289 382.136 207.49 377.808C202.195 367.524 193.709 360.111 190.022 348.665C181.005 320.674 187.191 258.612 200.635 232.423Z" data-index="39"></path>
  <path d="M216.899 442.434C226.848 405.396 237.84 368.636 247.687 331.557Q260.617 281.724 272.966 231.743C277.126 214.831 280.769 197.622 285.522 180.877C285.982 179.257 286.399 177.485 287.7 176.337L288.703 176.97C289.227 178.259 289.25 179.231 289.056 180.582C288.015 187.84 284.634 197.784 282.842 205.361Q274.185 242.538 264.432 279.443C260.97 292.629 257.936 305.926 254.54 319.13C250.562 334.595 245.97 349.905 241.817 365.325C234.856 391.169 228.095 417.243 220.123 442.797C217.988 450.31 206.557 490.331 203.727 494.307L202.648 494.548C201.891 493.729 201.881 493.691 201.903 492.616C202.008 487.585 205.27 480.887 206.762 476.028L216.899 442.434Z" data-index="40"></path>
</svg>
